<svg width="22" height="26" viewBox="0 0 22 26" fill="none" xmlns="http://www.w3.org/2000/svg">
<path d="M17.1889 0.789916L17.2192 17.1961L16.438 17.1976C16.0083 17.1984 15.6574 17.5506 15.6582 17.9803L15.661 19.5428C15.6618 19.9725 16.014 20.3234 16.4437 20.3226L17.225 20.3211L17.2322 24.2274C17.233 24.6571 17.5852 25.008 18.0149 25.0072L19.5774 25.0043C20.0071 25.0035 20.358 24.6513 20.3572 24.2216L20.35 20.3154L21.1312 20.3139C21.5609 20.3131 21.9118 19.9609 21.911 19.5312L21.9081 17.9687C21.9074 17.539 21.5551 17.1881 21.1255 17.1889L20.3442 17.1904L20.3139 0.784143C20.3131 0.354456 19.9609 0.003544 19.5312 0.00433776L17.9687 0.00722418C17.539 0.00801795 17.1881 0.360229 17.1889 0.789916ZM9.37642 0.804348L9.38363 4.71059L8.60238 4.71203C8.1727 4.71283 7.82179 5.06504 7.82258 5.49473L7.82547 7.05722C7.82626 7.48691 8.17847 7.83782 8.60816 7.83703L9.38941 7.83559L9.41971 24.2418C9.42051 24.6715 9.77272 25.0224 10.2024 25.0216L11.7649 25.0187C12.1946 25.0179 12.5455 24.6657 12.5447 24.236L12.5144 7.82981L13.2956 7.82837C13.7253 7.82758 14.0762 7.47536 14.0755 7.04568L14.0726 5.48318C14.0718 5.05349 13.7196 4.70258 13.2899 4.70338L12.5086 4.70482L12.5014 0.798575C12.5006 0.368889 12.1484 0.0179761 11.7187 0.0187698L10.1562 0.0216563C9.72654 0.02245 9.37562 0.374661 9.37642 0.804348ZM1.56393 0.81878L1.58269 10.975L0.801444 10.9765C0.371757 10.9772 0.0208448 11.3295 0.0216386 11.7591L0.024525 13.3216C0.0253187 13.7513 0.37753 14.1022 0.807217 14.1015L1.58847 14.1L1.60723 24.2562C1.60802 24.6859 1.96023 25.0368 2.38992 25.036L3.95242 25.0332C4.3821 25.0324 4.73302 24.6802 4.73222 24.2505L4.71346 14.0942L5.49471 14.0928C5.9244 14.092 6.27531 13.7398 6.27451 13.3101L6.27163 11.7476C6.27083 11.3179 5.91862 10.967 5.48894 10.9678L4.70769 10.9692L4.68893 0.813007C4.68813 0.383321 4.33592 0.0324082 3.90623 0.0332019L2.34374 0.0360883C1.91405 0.0368821 1.56314 0.389093 1.56393 0.81878Z" fill="white" fill-opacity="0.9"/>
</svg>
